<svg width="160" height="98" viewBox="0 0 160 98" fill="none" xmlns="http://www.w3.org/2000/svg">
<path d="M159.5 51C159.5 63.7288 150.715 75.3432 136.315 83.8029C121.927 92.2557 102.018 97.5 80 97.5C57.9818 97.5 38.0725 92.2557 23.6847 83.8029C9.28529 75.3432 0.5 63.7288 0.5 51C0.5 38.2712 9.28529 26.6568 23.6847 18.1971C38.0725 9.74427 57.9818 4.5 80 4.5C102.018 4.5 121.927 9.74427 136.315 18.1971C150.715 26.6568 159.5 38.2712 159.5 51Z" fill="#7C7C7C" stroke="black"/>
<circle cx="86" cy="51" r="14.5" fill="#D9D9D9" stroke="black"/>
<path d="M159.5 47C159.5 59.7288 150.715 71.3432 136.315 79.8029C121.927 88.2557 102.018 93.5 80 93.5C57.9818 93.5 38.0725 88.2557 23.6847 79.8029C9.28529 71.3432 0.5 59.7288 0.5 47C0.5 34.2712 9.28529 22.6568 23.6847 14.1971C38.0725 5.74427 57.9818 0.5 80 0.5C102.018 0.5 121.927 5.74427 136.315 14.1971C150.715 22.6568 159.5 34.2712 159.5 47Z" fill="#D9D9D9" stroke="black"/>
<path d="M145.5 47C145.5 56.6783 138.466 65.5442 126.865 72.0192C115.28 78.4851 99.2422 82.5 81.5 82.5C63.7578 82.5 47.7199 78.4851 36.1353 72.0192C24.5342 65.5442 17.5 56.6783 17.5 47C17.5 37.3217 24.5342 28.4558 36.1353 21.9808C47.7199 15.5149 63.7578 11.5 81.5 11.5C99.2422 11.5 115.28 15.5149 126.865 21.9808C138.466 28.4558 145.5 37.3217 145.5 47Z" stroke="black"/>
<path d="M150.5 46.5C150.5 57.7105 142.777 67.9499 130.097 75.414C117.429 82.8714 99.8947 87.5 80.5 87.5C61.1053 87.5 43.5712 82.8714 30.9026 75.414C18.2226 67.9499 10.5 57.7105 10.5 46.5C10.5 35.2895 18.2226 25.0501 30.9026 17.586C43.5712 10.1286 61.1053 5.5 80.5 5.5C99.8947 5.5 117.429 10.1286 130.097 17.586C142.777 25.0501 150.5 35.2895 150.5 46.5Z" stroke="black"/>
<circle cx="82" cy="47" r="14.5" fill="#0B1207" stroke="black"/>
<circle cx="67.5" cy="35.5" r="9.5" fill="#D9D9D9"/>
<circle cx="38" cy="73" r="0.5" fill="#D9D9D9" stroke="black"/>
</svg>
