<svg width="162" height="109" viewBox="0 0 162 109" fill="none" xmlns="http://www.w3.org/2000/svg">
<circle cx="81" cy="55" r="49.5" stroke="#A8A8A8"/>
<circle cx="90" cy="59" r="49.5" stroke="#A8A8A8"/>
<circle cx="70" cy="50" r="49.5" stroke="#A8A8A8"/>
<mask id="path-4-outside-1_8_2" maskUnits="userSpaceOnUse" x="1" y="35" width="160" height="33" fill="black">
<rect fill="white" x="1" y="35" width="160" height="33"/>
<path d="M24.12 61H17.64V45.52L9 61H2.16V35.8H8.64V51.28L17.28 35.8H24.12V61ZM42.6769 57.76H37.9969L34.3969 51.28V61H28.0969V41.92H34.7569L40.3369 52L45.9169 41.92H52.5769V61H46.2769V51.28L42.6769 57.76ZM75.2667 41.92V61H68.9667V46.78H62.4867V61H56.1867V41.92H75.2667ZM83.9025 67.48C82.6305 67.48 81.0705 67.36 79.2225 67.12V62.44H82.4625C83.3745 62.44 83.9625 62.188 84.2265 61.684C84.5145 61.18 84.4665 60.472 84.0825 59.56L76.7025 41.92H83.3625L87.8625 54.16L91.6425 41.92H98.3025L91.1025 61.72C90.4065 63.616 89.5065 65.044 88.4025 66.004C87.2985 66.988 85.7985 67.48 83.9025 67.48ZM100.851 61.36C99.8186 61.36 98.6186 61.24 97.2506 61V56.32H98.6906C99.6026 56.32 100.083 55.84 100.131 54.88L100.851 41.92H118.131V61H111.831V46.78H106.791L106.251 55.96C106.155 57.592 105.615 58.9 104.631 59.884C103.647 60.868 102.387 61.36 100.851 61.36ZM121.718 61V41.92H128.018V47.86H135.398C137.03 47.86 138.338 48.352 139.322 49.336C140.306 50.32 140.798 51.628 140.798 53.26V55.6C140.798 57.232 140.306 58.54 139.322 59.524C138.338 60.508 137.03 61 135.398 61H121.718ZM133.238 56.5C133.598 56.5 133.898 56.38 134.138 56.14C134.378 55.9 134.498 55.6 134.498 55.24V53.62C134.498 53.26 134.378 52.96 134.138 52.72C133.898 52.48 133.598 52.36 133.238 52.36H128.018V56.5H133.238ZM160.224 60.64C155.736 61.12 151.776 61.36 148.344 61.36C146.712 61.36 145.404 60.868 144.42 59.884C143.436 58.9 142.944 57.592 142.944 55.96V47.68C142.944 45.88 143.448 44.476 144.456 43.468C145.488 42.436 146.904 41.92 148.704 41.92H160.224V46.78H150.684C149.724 46.78 149.244 47.26 149.244 48.22V55.24C149.244 55.6 149.364 55.9 149.604 56.14C149.844 56.38 150.144 56.5 150.504 56.5C152.664 56.5 155.904 56.32 160.224 55.96V60.64Z"/>
</mask>
<path d="M24.12 61V61.5H24.62V61H24.12ZM17.64 61H17.14V61.5H17.64V61ZM17.64 45.52H18.14V43.5982L17.2034 45.2763L17.64 45.52ZM9 61V61.5H9.29354L9.4366 61.2437L9 61ZM2.16 61H1.66V61.5H2.16V61ZM2.16 35.8V35.3H1.66V35.8H2.16ZM8.64 35.8H9.14V35.3H8.64V35.8ZM8.64 51.28H8.14V53.2018L9.0766 51.5237L8.64 51.28ZM17.28 35.8V35.3H16.9865L16.8434 35.5563L17.28 35.8ZM24.12 35.8H24.62V35.3H24.12V35.8ZM24.12 60.5H17.64V61.5H24.12V60.5ZM18.14 61V45.52H17.14V61H18.14ZM17.2034 45.2763L8.5634 60.7563L9.4366 61.2437L18.0766 45.7637L17.2034 45.2763ZM9 60.5H2.16V61.5H9V60.5ZM2.66 61V35.8H1.66V61H2.66ZM2.16 36.3H8.64V35.3H2.16V36.3ZM8.14 35.8V51.28H9.14V35.8H8.14ZM9.0766 51.5237L17.7166 36.0437L16.8434 35.5563L8.2034 51.0363L9.0766 51.5237ZM17.28 36.3H24.12V35.3H17.28V36.3ZM23.62 35.8V61H24.62V35.8H23.62ZM42.6769 57.76V58.26H42.9711L43.114 58.0028L42.6769 57.76ZM37.9969 57.76L37.5598 58.0028L37.7027 58.26H37.9969V57.76ZM34.3969 51.28L34.834 51.0372L33.8969 49.3504V51.28H34.3969ZM34.3969 61V61.5H34.8969V61H34.3969ZM28.0969 61H27.5969V61.5H28.0969V61ZM28.0969 41.92V41.42H27.5969V41.92H28.0969ZM34.7569 41.92L35.1943 41.6778L35.0516 41.42H34.7569V41.92ZM40.3369 52L39.8994 52.2422L40.3369 53.0324L40.7743 52.2422L40.3369 52ZM45.9169 41.92V41.42H45.6222L45.4794 41.6778L45.9169 41.92ZM52.5769 41.92H53.0769V41.42H52.5769V41.92ZM52.5769 61V61.5H53.0769V61H52.5769ZM46.2769 61H45.7769V61.5H46.2769V61ZM46.2769 51.28H46.7769V49.3504L45.8398 51.0372L46.2769 51.28ZM42.6769 57.26H37.9969V58.26H42.6769V57.26ZM38.434 57.5172L34.834 51.0372L33.9598 51.5228L37.5598 58.0028L38.434 57.5172ZM33.8969 51.28V61H34.8969V51.28H33.8969ZM34.3969 60.5H28.0969V61.5H34.3969V60.5ZM28.5969 61V41.92H27.5969V61H28.5969ZM28.0969 42.42H34.7569V41.42H28.0969V42.42ZM34.3194 42.1622L39.8994 52.2422L40.7743 51.7578L35.1943 41.6778L34.3194 42.1622ZM40.7743 52.2422L46.3543 42.1622L45.4794 41.6778L39.8994 51.7578L40.7743 52.2422ZM45.9169 42.42H52.5769V41.42H45.9169V42.42ZM52.0769 41.92V61H53.0769V41.92H52.0769ZM52.5769 60.5H46.2769V61.5H52.5769V60.5ZM46.7769 61V51.28H45.7769V61H46.7769ZM45.8398 51.0372L42.2398 57.5172L43.114 58.0028L46.714 51.5228L45.8398 51.0372ZM75.2667 41.92H75.7667V41.42H75.2667V41.92ZM75.2667 61V61.5H75.7667V61H75.2667ZM68.9667 61H68.4667V61.5H68.9667V61ZM68.9667 46.78H69.4667V46.28H68.9667V46.78ZM62.4867 46.78V46.28H61.9867V46.78H62.4867ZM62.4867 61V61.5H62.9867V61H62.4867ZM56.1867 61H55.6867V61.5H56.1867V61ZM56.1867 41.92V41.42H55.6867V41.92H56.1867ZM74.7667 41.92V61H75.7667V41.92H74.7667ZM75.2667 60.5H68.9667V61.5H75.2667V60.5ZM69.4667 61V46.78H68.4667V61H69.4667ZM68.9667 46.28H62.4867V47.28H68.9667V46.28ZM61.9867 46.78V61H62.9867V46.78H61.9867ZM62.4867 60.5H56.1867V61.5H62.4867V60.5ZM56.6867 61V41.92H55.6867V61H56.6867ZM56.1867 42.42H75.2667V41.42H56.1867V42.42ZM79.2225 67.12H78.7225V67.5593L79.1581 67.6158L79.2225 67.12ZM79.2225 62.44V61.94H78.7225V62.44H79.2225ZM84.2265 61.684L83.7924 61.4359L83.7878 61.4439L83.7836 61.452L84.2265 61.684ZM84.0825 59.56L83.6212 59.753L83.6217 59.754L84.0825 59.56ZM76.7025 41.92V41.42H75.9513L76.2412 42.113L76.7025 41.92ZM83.3625 41.92L83.8318 41.7475L83.7114 41.42H83.3625V41.92ZM87.8625 54.16L87.3932 54.3325L87.9037 55.7211L88.3402 54.3075L87.8625 54.16ZM91.6425 41.92V41.42H91.2736L91.1648 41.7725L91.6425 41.92ZM98.3025 41.92L98.7724 42.0909L99.0163 41.42H98.3025V41.92ZM91.1025 61.72L91.5719 61.8923L91.5724 61.8909L91.1025 61.72ZM88.4025 66.004L88.0744 65.6267L88.0698 65.6307L88.4025 66.004ZM83.9025 66.98C82.6594 66.98 81.1224 66.8625 79.2869 66.6242L79.1581 67.6158C81.0186 67.8575 82.6016 67.98 83.9025 67.98V66.98ZM79.7225 67.12V62.44H78.7225V67.12H79.7225ZM79.2225 62.94H82.4625V61.94H79.2225V62.94ZM82.4625 62.94C83.4399 62.94 84.2747 62.6695 84.6694 61.916L83.7836 61.452C83.6503 61.7065 83.3091 61.94 82.4625 61.94V62.94ZM84.6606 61.9321C85.0668 61.2212 84.9461 60.3226 84.5433 59.366L83.6217 59.754C83.9869 60.6214 83.9622 61.1388 83.7924 61.4359L84.6606 61.9321ZM84.5438 59.367L77.1638 41.727L76.2412 42.113L83.6212 59.753L84.5438 59.367ZM76.7025 42.42H83.3625V41.42H76.7025V42.42ZM82.8932 42.0925L87.3932 54.3325L88.3318 53.9875L83.8318 41.7475L82.8932 42.0925ZM88.3402 54.3075L92.1202 42.0675L91.1648 41.7725L87.3848 54.0125L88.3402 54.3075ZM91.6425 42.42H98.3025V41.42H91.6425V42.42ZM97.8326 41.7491L90.6326 61.5491L91.5724 61.8909L98.7724 42.0909L97.8326 41.7491ZM90.6331 61.5477C89.9557 63.3932 89.0952 64.7391 88.0744 65.6267L88.7306 66.3813C89.9178 65.3489 90.8573 63.8388 91.5719 61.8923L90.6331 61.5477ZM88.0698 65.6307C87.0809 66.5122 85.7114 66.98 83.9025 66.98V67.98C85.8856 67.98 87.5161 67.4638 88.7352 66.3773L88.0698 65.6307ZM97.2506 61H96.7506V61.4199L97.1642 61.4925L97.2506 61ZM97.2506 56.32V55.82H96.7506V56.32H97.2506ZM100.131 54.88L99.6314 54.8523L99.6312 54.855L100.131 54.88ZM100.851 41.92V41.42H100.378L100.351 41.8923L100.851 41.92ZM118.131 41.92H118.631V41.42H118.131V41.92ZM118.131 61V61.5H118.631V61H118.131ZM111.831 61H111.331V61.5H111.831V61ZM111.831 46.78H112.331V46.28H111.831V46.78ZM106.791 46.78V46.28H106.319L106.291 46.7506L106.791 46.78ZM106.251 55.96L106.75 55.9894L106.251 55.96ZM104.631 59.884L104.277 59.5304L104.631 59.884ZM100.851 60.86C99.8555 60.86 98.6856 60.7441 97.337 60.5075L97.1642 61.4925C98.5517 61.7359 99.7817 61.86 100.851 61.86V60.86ZM97.7506 61V56.32H96.7506V61H97.7506ZM97.2506 56.82H98.6906V55.82H97.2506V56.82ZM98.6906 56.82C99.2323 56.82 99.7258 56.676 100.088 56.3136C100.446 55.9553 100.602 55.4575 100.63 54.905L99.6312 54.855C99.6109 55.2625 99.5028 55.4847 99.3811 55.6064C99.2635 55.724 99.061 55.82 98.6906 55.82V56.82ZM100.63 54.9077L101.35 41.9477L100.351 41.8923L99.6314 54.8523L100.63 54.9077ZM100.851 42.42H118.131V41.42H100.851V42.42ZM117.631 41.92V61H118.631V41.92H117.631ZM118.131 60.5H111.831V61.5H118.131V60.5ZM112.331 61V46.78H111.331V61H112.331ZM111.831 46.28H106.791V47.28H111.831V46.28ZM106.291 46.7506L105.751 55.9306L106.75 55.9894L107.29 46.8094L106.291 46.7506ZM105.751 55.9306C105.661 57.463 105.16 58.6478 104.277 59.5304L104.984 60.2376C106.07 59.1522 106.648 57.721 106.75 55.9894L105.751 55.9306ZM104.277 59.5304C103.397 60.4105 102.269 60.86 100.851 60.86V61.86C102.504 61.86 103.896 61.3255 104.984 60.2376L104.277 59.5304ZM121.718 61H121.218V61.5H121.718V61ZM121.718 41.92V41.42H121.218V41.92H121.718ZM128.018 41.92H128.518V41.42H128.018V41.92ZM128.018 47.86H127.518V48.36H128.018V47.86ZM139.322 49.336L138.968 49.6896L139.322 49.336ZM134.138 56.14L133.784 55.7864V55.7864L134.138 56.14ZM134.138 52.72L133.784 53.0736H133.784L134.138 52.72ZM128.018 52.36V51.86H127.518V52.36H128.018ZM128.018 56.5H127.518V57H128.018V56.5ZM122.218 61V41.92H121.218V61H122.218ZM121.718 42.42H128.018V41.42H121.718V42.42ZM127.518 41.92V47.86H128.518V41.92H127.518ZM128.018 48.36H135.398V47.36H128.018V48.36ZM135.398 48.36C136.922 48.36 138.094 48.8155 138.968 49.6896L139.676 48.9824C138.582 47.8885 137.138 47.36 135.398 47.36V48.36ZM138.968 49.6896C139.843 50.5637 140.298 51.7359 140.298 53.26H141.298C141.298 51.5201 140.769 50.0763 139.676 48.9824L138.968 49.6896ZM140.298 53.26V55.6H141.298V53.26H140.298ZM140.298 55.6C140.298 57.1241 139.843 58.2963 138.968 59.1704L139.676 59.8776C140.769 58.7837 141.298 57.3399 141.298 55.6H140.298ZM138.968 59.1704C138.094 60.0446 136.922 60.5 135.398 60.5V61.5C137.138 61.5 138.582 60.9715 139.676 59.8776L138.968 59.1704ZM135.398 60.5H121.718V61.5H135.398V60.5ZM133.238 57C133.722 57 134.152 56.8335 134.492 56.4936L133.784 55.7864C133.644 55.9265 133.474 56 133.238 56V57ZM134.492 56.4936C134.831 56.1537 134.998 55.7237 134.998 55.24H133.998C133.998 55.4763 133.925 55.6463 133.784 55.7864L134.492 56.4936ZM134.998 55.24V53.62H133.998V55.24H134.998ZM134.998 53.62C134.998 53.1363 134.831 52.7063 134.492 52.3664L133.784 53.0736C133.925 53.2137 133.998 53.3837 133.998 53.62H134.998ZM134.492 52.3664C134.152 52.0265 133.722 51.86 133.238 51.86V52.86C133.474 52.86 133.644 52.9335 133.784 53.0736L134.492 52.3664ZM133.238 51.86H128.018V52.86H133.238V51.86ZM127.518 52.36V56.5H128.518V52.36H127.518ZM128.018 57H133.238V56H128.018V57ZM160.224 60.64L160.277 61.1372L160.724 61.0894V60.64H160.224ZM144.42 59.884L144.066 60.2376H144.066L144.42 59.884ZM144.456 43.468L144.809 43.8216L144.456 43.468ZM160.224 41.92H160.724V41.42H160.224V41.92ZM160.224 46.78V47.28H160.724V46.78H160.224ZM160.224 55.96H160.724V55.4166L160.182 55.4617L160.224 55.96ZM160.171 60.1428C155.695 60.6215 151.754 60.86 148.344 60.86V61.86C151.798 61.86 155.777 61.6185 160.277 61.1372L160.171 60.1428ZM148.344 60.86C146.82 60.86 145.648 60.4045 144.773 59.5304L144.066 60.2376C145.16 61.3315 146.604 61.86 148.344 61.86V60.86ZM144.773 59.5304C143.899 58.6563 143.444 57.4841 143.444 55.96H142.444C142.444 57.6999 142.972 59.1437 144.066 60.2376L144.773 59.5304ZM143.444 55.96V47.68H142.444V55.96H143.444ZM143.444 47.68C143.444 45.9759 143.918 44.7127 144.809 43.8216L144.102 43.1144C142.977 44.2393 142.444 45.7841 142.444 47.68H143.444ZM144.809 43.8216C145.727 42.9042 147.004 42.42 148.704 42.42V41.42C146.804 41.42 145.249 41.9678 144.102 43.1144L144.809 43.8216ZM148.704 42.42H160.224V41.42H148.704V42.42ZM159.724 41.92V46.78H160.724V41.92H159.724ZM160.224 46.28H150.684V47.28H160.224V46.28ZM150.684 46.28C150.127 46.28 149.617 46.4196 149.25 46.7864C148.884 47.1533 148.744 47.6629 148.744 48.22H149.744C149.744 47.8171 149.844 47.6067 149.957 47.4936C150.071 47.3804 150.281 47.28 150.684 47.28V46.28ZM148.744 48.22V55.24H149.744V48.22H148.744ZM148.744 55.24C148.744 55.7237 148.91 56.1537 149.25 56.4936L149.957 55.7864C149.817 55.6463 149.744 55.4763 149.744 55.24H148.744ZM149.25 56.4936C149.59 56.8335 150.02 57 150.504 57V56C150.268 56 150.098 55.9265 149.957 55.7864L149.25 56.4936ZM150.504 57C152.686 57 155.942 56.8185 160.265 56.4583L160.182 55.4617C155.865 55.8215 152.642 56 150.504 56V57ZM159.724 55.96V60.64H160.724V55.96H159.724Z" fill="white" mask="url(#path-4-outside-1_8_2)"/>
</svg>
