<!-- icon666.com - MILLIONS OF FREE VECTOR ICONS --><svg id="Capa_1" enable-background="new 0 0 512 512" viewBox="0 0 512 512" xmlns="http://www.w3.org/2000/svg"><g><path d="m375.113 409.104c0 34.431-28.045 62.342-62.64 62.342h-169.661c-34.595 0-62.64-27.912-62.64-62.342v-306.21c0-34.43 28.044-62.341 62.639-62.341h169.664c34.594 0 62.639 27.911 62.639 62.341v12.99c0 11.199 9.122 20.277 20.374 20.277 11.252 0 20.374-9.078 20.374-20.277v-12.99c-.001-56.827-46.289-102.894-103.387-102.894h-169.663c-57.099 0-103.387 46.068-103.387 102.896v306.208c0 56.828 46.288 102.896 103.387 102.896h169.662c57.099 0 103.386-46.067 103.386-102.895v-11.113c0-11.199-9.122-20.277-20.374-20.277-11.252 0-20.374 9.078-20.374 20.277v11.112z" fill="#fe5ca7" style="fill: rgb(255, 0, 0);"></path><g fill="#fe3d97"><path d="m395.487 377.716c-11.252 0-20.374 9.078-20.374 20.277v11.111c0 4.062-.403 8.029-1.149 11.874-5.915 51.234-49.634 91.022-102.696 91.022h41.207c57.099 0 103.386-46.067 103.386-102.895v-11.113c0-11.198-9.122-20.276-20.374-20.276z" fill="#fe3d97" style="fill: rgb(250, 0, 37);"></path><path d="m312.475 0h-41.207c53.062 0 96.779 39.786 102.696 91.018.746 3.846 1.149 7.814 1.149 11.877v12.99c0 11.199 9.121 20.277 20.374 20.277 11.252 0 20.374-9.078 20.374-20.277v-12.99c0-56.828-46.288-102.895-103.386-102.895z" fill="#fe3d97" style="fill: rgb(250, 0, 37);"></path></g><path d="m409.841 328.646 55.48-55.216c9.672-9.626 9.672-25.233 0-34.859l-55.48-55.216c-7.956-7.918-20.856-7.918-28.812 0-7.956 7.918-7.956 20.757 0 28.675l23.807 23.693h-217.484c-11.252 0-20.374 9.078-20.374 20.277 0 11.199 9.122 20.277 20.374 20.277h217.483l-23.807 23.693c-7.956 7.918-7.956 20.757 0 28.675 7.957 7.919 20.857 7.919 28.813.001z" fill="#fe5ca7" style="fill: rgb(255, 0, 0);"></path><path d="m465.321 238.571-55.48-55.216c-7.956-7.919-20.856-7.919-28.812 0-7.956 7.919-7.956 20.757 0 28.675l23.807 23.693h-1.095l2.861 2.848c9.672 9.626 9.672 25.233 0 34.859l-2.861 2.848h1.095l-23.807 23.693c-7.956 7.919-7.956 20.757 0 28.675 7.957 7.918 20.856 7.918 28.812 0l55.48-55.216c9.672-9.627 9.672-25.233 0-34.859z" fill="#fe3d97" style="fill: rgb(250, 0, 37);"></path></g></svg>